name C:\Users\u0101727\Documents\MyRepositories\upper-imu-dc\Results\main_tracking\Case_17\kinematics.mot
datacolumns 10
datarows 28
range 7.88000000 8.15000000
endheader 
time	clav_prot	clav_elev	scapula_abduction	scapula_elevation	scapula_upward_rot	scapula_winging	plane_elv	shoulder_elv	axial_rot	
          7.88000000	        -43.03117226	         -7.60143428	         -7.58205649	        -14.42856136	         65.58622367	         -4.45827819	         28.85488300	         69.32814283	         -1.56628580	
          7.89000000	        -42.97629950	         -7.52864819	         -8.10454177	        -14.38526743	         64.80581955	         -4.49860896	         29.06299154	         69.14265974	         -1.75307480	
          7.90000000	        -42.93211240	         -7.44622293	         -8.65933691	        -14.33261056	         64.00809731	         -4.54762756	         29.28706168	         68.94780810	         -1.92084034	
          7.91000000	        -42.90363346	         -7.34697746	         -9.25259199	        -14.26552144	         63.19688254	         -4.61257026	         29.53483137	         68.73492905	         -2.05328323	
          7.92000000	        -42.89426553	         -7.22578084	         -9.88789509	        -14.18035839	         62.37544552	         -4.69838745	         29.81095910	         68.49852199	         -2.13856451	
          7.93000000	        -42.90556303	         -7.07993303	        -10.56608460	        -14.07515740	         61.54621519	         -4.80737429	         30.11642718	         68.23684339	         -2.16951406	
          7.94000000	        -42.93743437	         -6.90907552	        -11.28563931	        -13.94956586	         60.71074360	         -4.93934835	         30.44879810	         67.95168253	         -2.14302922	
          7.95000000	        -42.98857861	         -6.71491466	        -12.04326783	        -13.80465707	         59.86993215	         -5.09207992	         30.80290161	         67.64759535	         -2.05948771	
          7.96000000	        -43.05698334	         -6.50085740	        -12.83443277	        -13.64269361	         59.02447769	         -5.26182767	         31.17166609	         67.33081214	         -1.92246235	
          7.97000000	        -43.14040685	         -6.27148260	        -13.65379508	        -13.46678459	         58.17541368	         -5.44399905	         31.54707497	         67.00795503	         -1.73859208	
          7.98000000	        -43.23679858	         -6.03189134	        -14.49568498	        -13.28046290	         57.32450485	         -5.63386965	         31.92123050	         66.68486521	         -1.51733184	
          7.99000000	        -43.34458073	         -5.78703404	        -15.35444725	        -13.08724507	         56.47451946	         -5.82724132	         32.28729910	         66.36564234	         -1.27050638	
          8.00000000	        -43.46272417	         -5.54120858	        -16.22455796	        -12.89030325	         55.62934057	         -6.02086010	         32.64008584	         66.05210394	         -1.01164604	
          8.01000000	        -43.59063479	         -5.29787702	        -17.10061114	        -12.69234522	         54.79379294	         -6.21249274	         32.97614129	         65.74387577	         -0.75515107	
          8.02000000	        -43.72789322	         -5.05976769	        -17.97719727	        -12.49567336	         53.97325435	         -6.40070806	         33.29338909	         65.43900355	         -0.51530219	
          8.03000000	        -43.87395222	         -4.82910278	        -18.84880114	        -12.30231140	         53.17313364	         -6.58452758	         33.59047759	         65.13483330	         -0.30511854	
          8.04000000	        -44.02791139	         -4.60777070	        -19.70985887	        -12.11407866	         52.39831423	         -6.76313067	         33.86615895	         64.82885810	         -0.13512158	
          8.05000000	        -44.18844423	         -4.39734105	        -20.55502738	        -11.93255035	         51.65266407	         -6.93572618	         34.11893155	         64.51930261	         -0.01217152	
          8.06000000	        -44.35388645	         -4.19893687	        -21.37961356	        -11.75892413	         50.93869003	         -7.10159533	         34.34702785	         64.20536101	          0.06138303	
          8.07000000	        -44.52243340	         -4.01306454	        -22.18001313	        -11.59387192	         50.25739992	         -7.26022843	         34.54866893	         63.88712243	          0.08796392	
          8.08000000	        -44.69236476	         -3.83951723	        -22.95398586	        -11.43746340	         49.60840696	         -7.41145470	         34.72242150	         63.56528344	          0.07424309	
          8.09000000	        -44.86221945	         -3.67742868	        -23.70065036	        -11.28921593	         48.99025990	         -7.55548639	         34.86748832	         63.24077538	          0.02987590	
          8.10000000	        -45.03086442	         -3.52549974	        -24.42016101	        -11.14828235	         48.40093595	         -7.69283490	         34.98379445	         62.91443140	         -0.03429184	
          8.11000000	        -45.19742990	         -3.38235755	        -25.11309525	        -11.01374247	         47.83842263	         -7.82410321	         35.07179362	         62.58676624	         -0.10829289	
          8.12000000	        -45.36112093	         -3.24694233	        -25.77963069	        -10.88491945	         47.30133682	         -7.94971532	         35.13201620	         62.25784590	         -0.18521924	
          8.13000000	        -45.52095290	         -3.11877052	        -26.41864938	        -10.76161261	         46.78953919	         -8.06969050	         35.16449092	         61.92715044	         -0.26336934	
          8.14000000	        -45.67549355	         -2.99794325	        -27.02698864	        -10.64414913	         46.30465052	         -8.18357044	         35.16824985	         61.59336228	         -0.34805444	
          8.15000000	        -45.82270813	         -2.88486955	        -27.59910444	        -10.53322166	         45.85030661	         -8.29054741	         35.14111823	         61.25412548	         -0.45254973	
